<svg xmlns="http://www.w3.org/2000/svg" version="1.1" xmlns:xlink="http://www.w3.org/1999/xlink" xmlns:svgjs="http://svgjs.dev/svgjs" viewBox="0 0 2400 800"><defs><linearGradient x1="50%" y1="0%" x2="50%" y2="100%" id="sssurf-grad"><stop stop-color="#0071f2ff" stop-opacity="1" offset="0%"></stop><stop stop-color="hsla(270, 0%, 100%, 1)" stop-opacity="1" offset="100%"></stop></linearGradient></defs><g fill="url(#sssurf-grad)" transform="matrix(1,0,0,1,10.8282470703125,126.04620742797852)"><path d="M-10,10C33.75,14.583333333333332,114.58333333333334,39.916666666666664,200,32C285.41666666666663,24.083333333333336,316.66666666666663,-25.5,400,-28C483.33333333333337,-30.5,516.6666666666666,18.541666666666668,600,20C683.3333333333334,21.458333333333332,716.6666666666666,-24.541666666666668,800,-21C883.3333333333334,-17.458333333333332,916.6666666666666,38.041666666666664,1000,37C1083.3333333333333,35.958333333333336,1116.6666666666667,-26,1200,-26C1283.3333333333333,-26,1316.6666666666667,35.75,1400,37C1483.3333333333333,38.25,1516.6666666666667,-18.958333333333332,1600,-20C1683.3333333333333,-21.041666666666668,1716.6666666666667,28.25,1800,32C1883.3333333333333,35.75,1916.6666666666667,-3.4583333333333335,2000,-2C2083.3333333333335,-0.5416666666666665,2118.75,36.5,2200,39C2281.25,41.5,2296.25,-65.20833333333333,2390,10C2483.75,85.20833333333333,3252.0833333333335,214.58333333333331,2650,400C2047.9166666666665,585.4166666666667,156.25,795.8333333333334,-500,900" transform="matrix(1,0,0,1,0,68)" opacity="0.05"></path><path d="M-10,10C33.75,14.583333333333332,114.58333333333334,39.916666666666664,200,32C285.41666666666663,24.083333333333336,316.66666666666663,-25.5,400,-28C483.33333333333337,-30.5,516.6666666666666,18.541666666666668,600,20C683.3333333333334,21.458333333333332,716.6666666666666,-24.541666666666668,800,-21C883.3333333333334,-17.458333333333332,916.6666666666666,38.041666666666664,1000,37C1083.3333333333333,35.958333333333336,1116.6666666666667,-26,1200,-26C1283.3333333333333,-26,1316.6666666666667,35.75,1400,37C1483.3333333333333,38.25,1516.6666666666667,-18.958333333333332,1600,-20C1683.3333333333333,-21.041666666666668,1716.6666666666667,28.25,1800,32C1883.3333333333333,35.75,1916.6666666666667,-3.4583333333333335,2000,-2C2083.3333333333335,-0.5416666666666665,2118.75,36.5,2200,39C2281.25,41.5,2296.25,-65.20833333333333,2390,10C2483.75,85.20833333333333,3252.0833333333335,214.58333333333331,2650,400C2047.9166666666665,585.4166666666667,156.25,795.8333333333334,-500,900" transform="matrix(1,0,0,1,0,136)" opacity="0.24"></path><path d="M-10,10C33.75,14.583333333333332,114.58333333333334,39.916666666666664,200,32C285.41666666666663,24.083333333333336,316.66666666666663,-25.5,400,-28C483.33333333333337,-30.5,516.6666666666666,18.541666666666668,600,20C683.3333333333334,21.458333333333332,716.6666666666666,-24.541666666666668,800,-21C883.3333333333334,-17.458333333333332,916.6666666666666,38.041666666666664,1000,37C1083.3333333333333,35.958333333333336,1116.6666666666667,-26,1200,-26C1283.3333333333333,-26,1316.6666666666667,35.75,1400,37C1483.3333333333333,38.25,1516.6666666666667,-18.958333333333332,1600,-20C1683.3333333333333,-21.041666666666668,1716.6666666666667,28.25,1800,32C1883.3333333333333,35.75,1916.6666666666667,-3.4583333333333335,2000,-2C2083.3333333333335,-0.5416666666666665,2118.75,36.5,2200,39C2281.25,41.5,2296.25,-65.20833333333333,2390,10C2483.75,85.20833333333333,3252.0833333333335,214.58333333333331,2650,400C2047.9166666666665,585.4166666666667,156.25,795.8333333333334,-500,900" transform="matrix(1,0,0,1,0,204)" opacity="0.43"></path><path d="M-10,10C33.75,14.583333333333332,114.58333333333334,39.916666666666664,200,32C285.41666666666663,24.083333333333336,316.66666666666663,-25.5,400,-28C483.33333333333337,-30.5,516.6666666666666,18.541666666666668,600,20C683.3333333333334,21.458333333333332,716.6666666666666,-24.541666666666668,800,-21C883.3333333333334,-17.458333333333332,916.6666666666666,38.041666666666664,1000,37C1083.3333333333333,35.958333333333336,1116.6666666666667,-26,1200,-26C1283.3333333333333,-26,1316.6666666666667,35.75,1400,37C1483.3333333333333,38.25,1516.6666666666667,-18.958333333333332,1600,-20C1683.3333333333333,-21.041666666666668,1716.6666666666667,28.25,1800,32C1883.3333333333333,35.75,1916.6666666666667,-3.4583333333333335,2000,-2C2083.3333333333335,-0.5416666666666665,2118.75,36.5,2200,39C2281.25,41.5,2296.25,-65.20833333333333,2390,10C2483.75,85.20833333333333,3252.0833333333335,214.58333333333331,2650,400C2047.9166666666665,585.4166666666667,156.25,795.8333333333334,-500,900" transform="matrix(1,0,0,1,0,272)" opacity="0.62"></path><path d="M-10,10C33.75,14.583333333333332,114.58333333333334,39.916666666666664,200,32C285.41666666666663,24.083333333333336,316.66666666666663,-25.5,400,-28C483.33333333333337,-30.5,516.6666666666666,18.541666666666668,600,20C683.3333333333334,21.458333333333332,716.6666666666666,-24.541666666666668,800,-21C883.3333333333334,-17.458333333333332,916.6666666666666,38.041666666666664,1000,37C1083.3333333333333,35.958333333333336,1116.6666666666667,-26,1200,-26C1283.3333333333333,-26,1316.6666666666667,35.75,1400,37C1483.3333333333333,38.25,1516.6666666666667,-18.958333333333332,1600,-20C1683.3333333333333,-21.041666666666668,1716.6666666666667,28.25,1800,32C1883.3333333333333,35.75,1916.6666666666667,-3.4583333333333335,2000,-2C2083.3333333333335,-0.5416666666666665,2118.75,36.5,2200,39C2281.25,41.5,2296.25,-65.20833333333333,2390,10C2483.75,85.20833333333333,3252.0833333333335,214.58333333333331,2650,400C2047.9166666666665,585.4166666666667,156.25,795.8333333333334,-500,900" transform="matrix(1,0,0,1,0,340)" opacity="0.81"></path><path d="M-10,10C33.75,14.583333333333332,114.58333333333334,39.916666666666664,200,32C285.41666666666663,24.083333333333336,316.66666666666663,-25.5,400,-28C483.33333333333337,-30.5,516.6666666666666,18.541666666666668,600,20C683.3333333333334,21.458333333333332,716.6666666666666,-24.541666666666668,800,-21C883.3333333333334,-17.458333333333332,916.6666666666666,38.041666666666664,1000,37C1083.3333333333333,35.958333333333336,1116.6666666666667,-26,1200,-26C1283.3333333333333,-26,1316.6666666666667,35.75,1400,37C1483.3333333333333,38.25,1516.6666666666667,-18.958333333333332,1600,-20C1683.3333333333333,-21.041666666666668,1716.6666666666667,28.25,1800,32C1883.3333333333333,35.75,1916.6666666666667,-3.4583333333333335,2000,-2C2083.3333333333335,-0.5416666666666665,2118.75,36.5,2200,39C2281.25,41.5,2296.25,-65.20833333333333,2390,10C2483.75,85.20833333333333,3252.0833333333335,214.58333333333331,2650,400C2047.9166666666665,585.4166666666667,156.25,795.8333333333334,-500,900" transform="matrix(1,0,0,1,0,408)" opacity="1.00"></path></g></svg>